<mxfile host="65bd71144e">
    <diagram id="c1MNTS5IaXHl0yBIH61s" name="PÃ¡gina-1">
        <mxGraphModel dx="814" dy="608" grid="1" gridSize="10" guides="1" tooltips="1" connect="1" arrows="1" fold="1" page="1" pageScale="1" pageWidth="2336" pageHeight="1654" math="0" shadow="0">
            <root>
                <mxCell id="0"/>
                <mxCell id="1" parent="0"/>
                <mxCell id="36" value="" style="group" vertex="1" connectable="0" parent="1">
                    <mxGeometry x="500" y="630" width="120" height="53" as="geometry"/>
                </mxCell>
                <mxCell id="37" value="" style="rounded=1;whiteSpace=wrap;html=1;strokeColor=none;fillColor=#2ECC71;shadow=0;" vertex="1" parent="36">
                    <mxGeometry width="120" height="53" as="geometry"/>
                </mxCell>
                <mxCell id="38" value="Controller" style="text;html=1;strokeColor=none;fillColor=none;align=left;verticalAlign=middle;whiteSpace=wrap;rounded=0;" vertex="1" parent="36">
                    <mxGeometry x="9" y="16.023255813953487" width="79" height="20.953488372093023" as="geometry"/>
                </mxCell>
                <mxCell id="39" value="" style="sketch=0;outlineConnect=0;fontColor=#232F3E;gradientColor=none;fillColor=#3F8624;strokeColor=none;dashed=0;verticalLabelPosition=bottom;verticalAlign=top;align=center;html=1;fontSize=12;fontStyle=0;aspect=fixed;pointerEvents=1;shape=mxgraph.aws4.iot_thing_plc;rounded=1;shadow=0;" vertex="1" parent="36">
                    <mxGeometry x="81.44999999999999" y="11.5" width="30" height="30" as="geometry"/>
                </mxCell>
                <mxCell id="43" value="" style="group" vertex="1" connectable="0" parent="1">
                    <mxGeometry x="500" y="80" width="310" height="320" as="geometry"/>
                </mxCell>
                <mxCell id="3" value="" style="group" vertex="1" connectable="0" parent="43">
                    <mxGeometry width="120" height="53" as="geometry"/>
                </mxCell>
                <mxCell id="4" value="" style="rounded=1;whiteSpace=wrap;html=1;strokeColor=none;fillColor=#2ECC71;shadow=0;" vertex="1" parent="3">
                    <mxGeometry width="120" height="53" as="geometry"/>
                </mxCell>
                <mxCell id="5" value="API Gateway" style="text;html=1;strokeColor=none;fillColor=none;align=left;verticalAlign=middle;whiteSpace=wrap;rounded=0;" vertex="1" parent="3">
                    <mxGeometry x="9" y="16.023255813953487" width="79" height="20.953488372093023" as="geometry"/>
                </mxCell>
                <mxCell id="6" value="" style="sketch=0;outlineConnect=0;fontColor=#ffffff;fillColor=#008a00;strokeColor=#005700;dashed=0;verticalLabelPosition=bottom;verticalAlign=top;align=center;html=1;fontSize=12;fontStyle=0;aspect=fixed;pointerEvents=1;shape=mxgraph.aws4.gateway;rounded=1;shadow=0;" vertex="1" parent="3">
                    <mxGeometry x="88.55000000000001" y="12.017441860465116" width="22.9" height="23.5" as="geometry"/>
                </mxCell>
                <mxCell id="7" style="edgeStyle=none;html=1;exitX=0.5;exitY=1;exitDx=0;exitDy=0;entryX=0.875;entryY=0;entryDx=0;entryDy=0;entryPerimeter=0;strokeColor=#666666;fontSize=8;startArrow=none;startFill=0;endArrow=none;endFill=0;" edge="1" parent="43" target="4">
                    <mxGeometry relative="1" as="geometry">
                        <mxPoint x="105" as="sourcePoint"/>
                    </mxGeometry>
                </mxCell>
                <mxCell id="42" value="" style="whiteSpace=wrap;html=1;aspect=fixed;fontSize=9;fillColor=none;dashed=1;" vertex="1" parent="43">
                    <mxGeometry width="310" height="310" as="geometry"/>
                </mxCell>
                <mxCell id="75" style="edgeStyle=none;rounded=0;html=1;exitX=0.5;exitY=0;exitDx=0;exitDy=0;entryX=0.425;entryY=0.025;entryDx=0;entryDy=0;strokeWidth=1;fontSize=9;startArrow=none;startFill=0;endArrow=oval;endFill=1;entryPerimeter=0;fillColor=#60a917;strokeColor=#2D7600;" edge="1" parent="43" source="44" target="71">
                    <mxGeometry relative="1" as="geometry">
                        <Array as="points">
                            <mxPoint x="60" y="70"/>
                            <mxPoint x="240" y="70"/>
                        </Array>
                    </mxGeometry>
                </mxCell>
                <mxCell id="44" value="Get updates (in loop) from Cloud API" style="rounded=1;whiteSpace=wrap;html=1;fontSize=9;fillColor=#d80073;fontColor=#ffffff;strokeColor=#A50040;" vertex="1" parent="43">
                    <mxGeometry y="90" width="120" height="30" as="geometry"/>
                </mxCell>
                <mxCell id="62" style="edgeStyle=none;rounded=0;html=1;exitX=0.5;exitY=1;exitDx=0;exitDy=0;entryX=0.5;entryY=0;entryDx=0;entryDy=0;strokeWidth=1;fontSize=9;startArrow=none;startFill=0;endArrow=none;endFill=0;" edge="1" parent="43" source="45" target="57">
                    <mxGeometry relative="1" as="geometry">
                        <Array as="points">
                            <mxPoint x="20" y="160"/>
                            <mxPoint x="45" y="160"/>
                        </Array>
                    </mxGeometry>
                </mxCell>
                <mxCell id="66" style="edgeStyle=none;rounded=0;html=1;exitX=1;exitY=0.5;exitDx=0;exitDy=0;entryX=0.104;entryY=-0.005;entryDx=0;entryDy=0;entryPerimeter=0;strokeWidth=1;fontSize=9;startArrow=none;startFill=0;endArrow=oval;endFill=1;fillColor=#f0a30a;strokeColor=#BD7000;" edge="1" parent="43" source="45" target="65">
                    <mxGeometry relative="1" as="geometry">
                        <Array as="points">
                            <mxPoint x="70" y="135"/>
                            <mxPoint x="70" y="170"/>
                            <mxPoint x="120" y="170"/>
                            <mxPoint x="120" y="260"/>
                            <mxPoint x="20" y="260"/>
                        </Array>
                    </mxGeometry>
                </mxCell>
                <mxCell id="45" value="OK" style="rounded=1;whiteSpace=wrap;html=1;fontSize=9;fillColor=#60a917;fontColor=#ffffff;strokeColor=#2D7600;" vertex="1" parent="43">
                    <mxGeometry y="120" width="40" height="30" as="geometry"/>
                </mxCell>
                <mxCell id="52" style="edgeStyle=none;rounded=0;html=1;exitX=1;exitY=0.5;exitDx=0;exitDy=0;entryX=0;entryY=0.5;entryDx=0;entryDy=0;strokeWidth=1;fontSize=9;startArrow=none;startFill=0;endArrow=none;endFill=0;" edge="1" parent="43" source="46" target="51">
                    <mxGeometry relative="1" as="geometry">
                        <Array as="points">
                            <mxPoint x="140" y="135"/>
                            <mxPoint x="140" y="105"/>
                        </Array>
                    </mxGeometry>
                </mxCell>
                <mxCell id="67" style="edgeStyle=none;rounded=0;html=1;exitX=0.5;exitY=1;exitDx=0;exitDy=0;entryX=0.157;entryY=-0.031;entryDx=0;entryDy=0;entryPerimeter=0;strokeWidth=1;fontSize=9;startArrow=none;startFill=0;endArrow=oval;endFill=1;fillColor=#f0a30a;strokeColor=#BD7000;" edge="1" parent="43" source="46" target="65">
                    <mxGeometry relative="1" as="geometry">
                        <Array as="points">
                            <mxPoint x="100" y="160"/>
                            <mxPoint x="130" y="160"/>
                            <mxPoint x="130" y="270"/>
                            <mxPoint x="30" y="270"/>
                        </Array>
                    </mxGeometry>
                </mxCell>
                <mxCell id="46" value="Error" style="rounded=1;whiteSpace=wrap;html=1;fontSize=9;fillColor=#e51400;fontColor=#ffffff;strokeColor=#B20000;" vertex="1" parent="43">
                    <mxGeometry x="80" y="120" width="40" height="30" as="geometry"/>
                </mxCell>
                <mxCell id="70" style="edgeStyle=none;rounded=0;html=1;exitX=0.285;exitY=0.991;exitDx=0;exitDy=0;entryX=0.368;entryY=-0.005;entryDx=0;entryDy=0;entryPerimeter=0;strokeWidth=1;fontSize=9;startArrow=none;startFill=0;endArrow=oval;endFill=1;exitPerimeter=0;fillColor=#f0a30a;strokeColor=#BD7000;" edge="1" parent="43" source="51" target="65">
                    <mxGeometry relative="1" as="geometry">
                        <Array as="points">
                            <mxPoint x="170" y="280"/>
                            <mxPoint x="70" y="280"/>
                        </Array>
                    </mxGeometry>
                </mxCell>
                <mxCell id="76" style="edgeStyle=none;rounded=0;html=1;exitX=0.5;exitY=0;exitDx=0;exitDy=0;entryX=0.328;entryY=-0.002;entryDx=0;entryDy=0;strokeWidth=1;fontSize=9;startArrow=none;startFill=0;endArrow=oval;endFill=1;entryPerimeter=0;fillColor=#1ba1e2;strokeColor=#006EAF;" edge="1" parent="43" source="51" target="71">
                    <mxGeometry relative="1" as="geometry">
                        <Array as="points">
                            <mxPoint x="185" y="80"/>
                            <mxPoint x="230" y="80"/>
                        </Array>
                    </mxGeometry>
                </mxCell>
                <mxCell id="51" value="Error Containment" style="rounded=1;whiteSpace=wrap;html=1;fontSize=9;fillColor=#d80073;fontColor=#ffffff;strokeColor=#A50040;" vertex="1" parent="43">
                    <mxGeometry x="150" y="90" width="70" height="30" as="geometry"/>
                </mxCell>
                <mxCell id="57" value="Sent to Controller" style="rounded=1;whiteSpace=wrap;html=1;fontSize=9;fillColor=#d80073;fontColor=#ffffff;strokeColor=#A50040;" vertex="1" parent="43">
                    <mxGeometry y="180" width="90" height="30" as="geometry"/>
                </mxCell>
                <mxCell id="68" style="edgeStyle=none;rounded=0;html=1;exitX=0.5;exitY=1;exitDx=0;exitDy=0;entryX=0.05;entryY=-0.002;entryDx=0;entryDy=0;entryPerimeter=0;strokeWidth=1;fontSize=9;startArrow=none;startFill=0;endArrow=oval;endFill=1;fillColor=#f0a30a;strokeColor=#BD7000;" edge="1" parent="43" source="59" target="65">
                    <mxGeometry relative="1" as="geometry">
                        <Array as="points">
                            <mxPoint x="10" y="240"/>
                        </Array>
                    </mxGeometry>
                </mxCell>
                <mxCell id="77" style="edgeStyle=none;rounded=0;html=1;exitX=0.75;exitY=1;exitDx=0;exitDy=0;entryX=0.25;entryY=0;entryDx=0;entryDy=0;strokeWidth=1;fontSize=9;startArrow=none;startFill=0;endArrow=oval;endFill=1;jumpStyle=none;fillColor=#1ba1e2;strokeColor=#006EAF;" edge="1" parent="43" source="59" target="71">
                    <mxGeometry relative="1" as="geometry">
                        <Array as="points">
                            <mxPoint x="30" y="250"/>
                            <mxPoint x="220" y="250"/>
                        </Array>
                    </mxGeometry>
                </mxCell>
                <mxCell id="59" value="OK" style="rounded=1;whiteSpace=wrap;html=1;fontSize=9;fillColor=#60a917;fontColor=#ffffff;strokeColor=#2D7600;" vertex="1" parent="43">
                    <mxGeometry y="210" width="40" height="30" as="geometry"/>
                </mxCell>
                <mxCell id="63" style="edgeStyle=none;rounded=0;html=1;exitX=1;exitY=0.5;exitDx=0;exitDy=0;entryX=-0.005;entryY=0.664;entryDx=0;entryDy=0;strokeWidth=1;fontSize=9;startArrow=none;startFill=0;endArrow=none;endFill=0;entryPerimeter=0;" edge="1" parent="43" source="60" target="51">
                    <mxGeometry relative="1" as="geometry">
                        <Array as="points">
                            <mxPoint x="140" y="225"/>
                            <mxPoint x="140" y="110"/>
                        </Array>
                    </mxGeometry>
                </mxCell>
                <mxCell id="69" style="edgeStyle=none;rounded=0;html=1;exitX=0.25;exitY=1;exitDx=0;exitDy=0;entryX=0.211;entryY=-0.002;entryDx=0;entryDy=0;entryPerimeter=0;strokeWidth=1;fontSize=9;startArrow=none;startFill=0;endArrow=oval;endFill=1;fillColor=#f0a30a;strokeColor=#BD7000;" edge="1" parent="43" source="60" target="65">
                    <mxGeometry relative="1" as="geometry">
                        <Array as="points">
                            <mxPoint x="60" y="280"/>
                            <mxPoint x="40" y="280"/>
                        </Array>
                    </mxGeometry>
                </mxCell>
                <mxCell id="60" value="Error" style="rounded=1;whiteSpace=wrap;html=1;fontSize=9;fillColor=#e51400;fontColor=#ffffff;strokeColor=#B20000;" vertex="1" parent="43">
                    <mxGeometry x="50" y="210" width="40" height="30" as="geometry"/>
                </mxCell>
                <mxCell id="65" value="Log Client" style="rounded=1;whiteSpace=wrap;html=1;fontSize=9;fillColor=#fa6800;fontColor=#000000;strokeColor=#C73500;" vertex="1" parent="43">
                    <mxGeometry y="290" width="190" height="30" as="geometry"/>
                </mxCell>
                <mxCell id="71" value="API Client" style="rounded=1;whiteSpace=wrap;html=1;fontSize=9;fillColor=#6a00ff;fontColor=#ffffff;strokeColor=#3700CC;" vertex="1" parent="43">
                    <mxGeometry x="190" y="290" width="120" height="30" as="geometry"/>
                </mxCell>
                <mxCell id="73" value="" style="group" vertex="1" connectable="0" parent="1">
                    <mxGeometry x="220" y="460" width="280" height="140" as="geometry"/>
                </mxCell>
                <mxCell id="20" value="Logging" style="rounded=1;whiteSpace=wrap;html=1;shadow=0;strokeColor=#6D1F00;fontSize=12;fillColor=#a0522d;fontColor=#ffffff;align=left;spacingLeft=10;" vertex="1" parent="73">
                    <mxGeometry y="43.5" width="120" height="53" as="geometry"/>
                </mxCell>
                <mxCell id="21" value="" style="sketch=0;pointerEvents=1;shadow=0;dashed=0;html=1;strokeColor=none;labelPosition=center;verticalLabelPosition=bottom;verticalAlign=top;align=center;fillColor=#505050;shape=mxgraph.mscae.oms.log_management" vertex="1" parent="73">
                    <mxGeometry x="74.5" y="55" width="31" height="30" as="geometry"/>
                </mxCell>
                <mxCell id="23" value="/log/debug [POST]" style="rounded=0;whiteSpace=wrap;html=1;strokeColor=#001DBC;fillColor=#0050ef;fontColor=#ffffff;fontSize=9;" vertex="1" parent="73">
                    <mxGeometry x="180" width="100" height="20" as="geometry"/>
                </mxCell>
                <mxCell id="28" style="edgeStyle=none;rounded=0;html=1;exitX=1;exitY=0.5;exitDx=0;exitDy=0;entryX=0;entryY=0.5;entryDx=0;entryDy=0;fontSize=9;startArrow=none;startFill=0;endArrow=oval;endFill=1;fillColor=#1ba1e2;strokeColor=#006EAF;" edge="1" parent="73" source="20" target="23">
                    <mxGeometry relative="1" as="geometry">
                        <Array as="points">
                            <mxPoint x="140" y="70"/>
                            <mxPoint x="140" y="10"/>
                        </Array>
                    </mxGeometry>
                </mxCell>
                <mxCell id="24" value="/log/info [POST]" style="rounded=0;whiteSpace=wrap;html=1;strokeColor=#001DBC;fillColor=#0050ef;fontColor=#ffffff;fontSize=9;" vertex="1" parent="73">
                    <mxGeometry x="180" y="30" width="100" height="20" as="geometry"/>
                </mxCell>
                <mxCell id="31" style="edgeStyle=none;rounded=0;html=1;exitX=1;exitY=0.5;exitDx=0;exitDy=0;entryX=0;entryY=0.5;entryDx=0;entryDy=0;fontSize=9;startArrow=none;startFill=0;endArrow=oval;endFill=1;fillColor=#1ba1e2;strokeColor=#006EAF;" edge="1" parent="73" source="20" target="24">
                    <mxGeometry relative="1" as="geometry">
                        <Array as="points">
                            <mxPoint x="140" y="70"/>
                            <mxPoint x="140" y="40"/>
                        </Array>
                    </mxGeometry>
                </mxCell>
                <mxCell id="25" value="/log/warning [POST]" style="rounded=0;whiteSpace=wrap;html=1;strokeColor=#001DBC;fillColor=#0050ef;fontColor=#ffffff;fontSize=9;" vertex="1" parent="73">
                    <mxGeometry x="180" y="60" width="100" height="20" as="geometry"/>
                </mxCell>
                <mxCell id="32" style="edgeStyle=none;rounded=0;html=1;exitX=1;exitY=0.5;exitDx=0;exitDy=0;entryX=0;entryY=0.5;entryDx=0;entryDy=0;fontSize=9;startArrow=none;startFill=0;endArrow=oval;endFill=1;fillColor=#1ba1e2;strokeColor=#006EAF;" edge="1" parent="73" source="20" target="25">
                    <mxGeometry relative="1" as="geometry"/>
                </mxCell>
                <mxCell id="26" value="/log/error [POST]" style="rounded=0;whiteSpace=wrap;html=1;strokeColor=#001DBC;fillColor=#0050ef;fontColor=#ffffff;fontSize=9;" vertex="1" parent="73">
                    <mxGeometry x="180" y="90" width="100" height="20" as="geometry"/>
                </mxCell>
                <mxCell id="33" style="edgeStyle=none;rounded=0;html=1;exitX=1;exitY=0.5;exitDx=0;exitDy=0;entryX=0;entryY=0.5;entryDx=0;entryDy=0;fontSize=9;startArrow=none;startFill=0;endArrow=oval;endFill=1;fillColor=#1ba1e2;strokeColor=#006EAF;" edge="1" parent="73" source="20" target="26">
                    <mxGeometry relative="1" as="geometry">
                        <Array as="points">
                            <mxPoint x="140" y="70"/>
                            <mxPoint x="140" y="100"/>
                        </Array>
                    </mxGeometry>
                </mxCell>
                <mxCell id="27" value="/log/critical [POST]" style="rounded=0;whiteSpace=wrap;html=1;strokeColor=#001DBC;fillColor=#0050ef;fontColor=#ffffff;fontSize=9;" vertex="1" parent="73">
                    <mxGeometry x="180" y="120" width="100" height="20" as="geometry"/>
                </mxCell>
                <mxCell id="34" style="edgeStyle=none;rounded=0;html=1;exitX=1;exitY=0.5;exitDx=0;exitDy=0;entryX=0;entryY=0.5;entryDx=0;entryDy=0;fontSize=9;startArrow=none;startFill=0;endArrow=oval;endFill=1;fillColor=#1ba1e2;strokeColor=#006EAF;" edge="1" parent="73" source="20" target="27">
                    <mxGeometry relative="1" as="geometry">
                        <Array as="points">
                            <mxPoint x="140" y="70"/>
                            <mxPoint x="140" y="130"/>
                        </Array>
                    </mxGeometry>
                </mxCell>
                <mxCell id="74" value="" style="group" vertex="1" connectable="0" parent="1">
                    <mxGeometry x="560" y="710" width="240" height="90" as="geometry"/>
                </mxCell>
                <mxCell id="10" value="" style="outlineConnect=0;dashed=0;verticalLabelPosition=bottom;verticalAlign=top;align=center;html=1;shape=mxgraph.aws3.internet_gateway;fillColor=#0050ef;fontColor=#ffffff;strokeColor=#6666FF;" vertex="1" parent="74">
                    <mxGeometry width="90" height="90" as="geometry"/>
                </mxCell>
                <mxCell id="12" value="/GetUpdates [GET]" style="rounded=0;whiteSpace=wrap;html=1;strokeColor=#2D7600;fillColor=#60a917;fontColor=#ffffff;fontSize=9;" vertex="1" parent="74">
                    <mxGeometry x="140" y="10" width="100" height="20" as="geometry"/>
                </mxCell>
                <mxCell id="16" style="edgeStyle=none;html=1;exitX=1;exitY=0.5;exitDx=0;exitDy=0;exitPerimeter=0;entryX=0;entryY=0.5;entryDx=0;entryDy=0;fontSize=9;endArrow=oval;endFill=1;rounded=0;fillColor=#60a917;strokeColor=#2D7600;" edge="1" parent="74" source="10" target="12">
                    <mxGeometry relative="1" as="geometry">
                        <Array as="points">
                            <mxPoint x="110" y="45"/>
                            <mxPoint x="110" y="20"/>
                        </Array>
                    </mxGeometry>
                </mxCell>
                <mxCell id="13" value="/SendMessage [POST]" style="rounded=0;whiteSpace=wrap;html=1;strokeColor=#001DBC;fillColor=#0050ef;fontColor=#ffffff;fontSize=9;" vertex="1" parent="74">
                    <mxGeometry x="140" y="60" width="100" height="20" as="geometry"/>
                </mxCell>
                <mxCell id="17" style="edgeStyle=none;rounded=0;html=1;exitX=1;exitY=0.5;exitDx=0;exitDy=0;exitPerimeter=0;entryX=0;entryY=0.5;entryDx=0;entryDy=0;fontSize=9;endArrow=oval;endFill=1;fillColor=#1ba1e2;strokeColor=#006EAF;" edge="1" parent="74" source="10" target="13">
                    <mxGeometry relative="1" as="geometry">
                        <Array as="points">
                            <mxPoint x="110" y="45"/>
                            <mxPoint x="110" y="70"/>
                        </Array>
                    </mxGeometry>
                </mxCell>
                <mxCell id="78" style="edgeStyle=none;rounded=0;jumpStyle=none;html=1;exitX=1;exitY=0.5;exitDx=0;exitDy=0;strokeWidth=1;fontSize=9;startArrow=none;startFill=0;endArrow=none;endFill=0;fillColor=#f0a30a;strokeColor=#BD7000;" edge="1" parent="1" source="24">
                    <mxGeometry relative="1" as="geometry">
                        <mxPoint x="520" y="400" as="targetPoint"/>
                        <Array as="points">
                            <mxPoint x="520" y="500"/>
                        </Array>
                    </mxGeometry>
                </mxCell>
                <mxCell id="79" style="edgeStyle=none;rounded=0;jumpStyle=none;html=1;exitX=1;exitY=0.25;exitDx=0;exitDy=0;entryX=0.054;entryY=0.998;entryDx=0;entryDy=0;entryPerimeter=0;strokeWidth=1;fontSize=9;startArrow=none;startFill=0;endArrow=none;endFill=0;fillColor=#f0a30a;strokeColor=#BD7000;" edge="1" parent="1" source="24" target="65">
                    <mxGeometry relative="1" as="geometry">
                        <Array as="points">
                            <mxPoint x="510" y="495"/>
                        </Array>
                    </mxGeometry>
                </mxCell>
                <mxCell id="80" style="edgeStyle=none;rounded=0;jumpStyle=none;html=1;entryX=0.155;entryY=0.998;entryDx=0;entryDy=0;entryPerimeter=0;strokeWidth=1;fontSize=9;startArrow=none;startFill=0;endArrow=none;endFill=0;exitX=1;exitY=0.25;exitDx=0;exitDy=0;fillColor=#f0a30a;strokeColor=#BD7000;" edge="1" parent="1" source="26" target="65">
                    <mxGeometry relative="1" as="geometry">
                        <mxPoint x="500" y="560" as="sourcePoint"/>
                        <Array as="points">
                            <mxPoint x="530" y="555"/>
                        </Array>
                    </mxGeometry>
                </mxCell>
                <mxCell id="81" style="edgeStyle=none;rounded=0;jumpStyle=none;html=1;exitX=1;exitY=0.5;exitDx=0;exitDy=0;strokeWidth=1;fontSize=9;startArrow=none;startFill=0;endArrow=none;endFill=0;entryX=0.211;entryY=0.997;entryDx=0;entryDy=0;entryPerimeter=0;fillColor=#f0a30a;strokeColor=#BD7000;" edge="1" parent="1" source="26" target="65">
                    <mxGeometry relative="1" as="geometry">
                        <mxPoint x="540" y="400" as="targetPoint"/>
                        <Array as="points">
                            <mxPoint x="540" y="560"/>
                        </Array>
                    </mxGeometry>
                </mxCell>
                <mxCell id="82" style="edgeStyle=none;rounded=0;jumpStyle=none;html=1;exitX=1;exitY=0.75;exitDx=0;exitDy=0;entryX=0.367;entryY=0.993;entryDx=0;entryDy=0;entryPerimeter=0;strokeWidth=1;fontSize=9;startArrow=none;startFill=0;endArrow=none;endFill=0;fillColor=#f0a30a;strokeColor=#BD7000;" edge="1" parent="1" source="24" target="65">
                    <mxGeometry relative="1" as="geometry">
                        <Array as="points">
                            <mxPoint x="570" y="505"/>
                        </Array>
                    </mxGeometry>
                </mxCell>
                <mxCell id="83" style="edgeStyle=none;rounded=0;jumpStyle=none;html=1;exitX=1;exitY=0.5;exitDx=0;exitDy=0;strokeWidth=1;fontSize=9;startArrow=none;startFill=0;endArrow=none;endFill=0;fillColor=#60a917;strokeColor=#2D7600;" edge="1" parent="1" source="12">
                    <mxGeometry relative="1" as="geometry">
                        <mxPoint x="740" y="400" as="targetPoint"/>
                        <Array as="points">
                            <mxPoint x="850" y="730"/>
                            <mxPoint x="850" y="440"/>
                            <mxPoint x="740" y="440"/>
                        </Array>
                    </mxGeometry>
                </mxCell>
                <mxCell id="84" style="edgeStyle=none;rounded=0;jumpStyle=none;html=1;exitX=1;exitY=0.5;exitDx=0;exitDy=0;entryX=0.337;entryY=1.018;entryDx=0;entryDy=0;entryPerimeter=0;strokeWidth=1;fontSize=9;startArrow=none;startFill=0;endArrow=none;endFill=0;fillColor=#1ba1e2;strokeColor=#006EAF;" edge="1" parent="1" source="13" target="71">
                    <mxGeometry relative="1" as="geometry">
                        <Array as="points">
                            <mxPoint x="840" y="780"/>
                            <mxPoint x="840" y="450"/>
                            <mxPoint x="730" y="450"/>
                        </Array>
                    </mxGeometry>
                </mxCell>
                <mxCell id="87" style="edgeStyle=none;rounded=0;jumpStyle=none;html=1;exitX=0.998;exitY=0.674;exitDx=0;exitDy=0;entryX=0.25;entryY=1;entryDx=0;entryDy=0;strokeWidth=1;fontSize=9;startArrow=none;startFill=0;endArrow=none;endFill=0;exitPerimeter=0;fillColor=#1ba1e2;strokeColor=#006EAF;" edge="1" parent="1" source="85" target="71">
                    <mxGeometry relative="1" as="geometry">
                        <Array as="points">
                            <mxPoint x="830" y="660"/>
                            <mxPoint x="830" y="460"/>
                            <mxPoint x="720" y="460"/>
                        </Array>
                    </mxGeometry>
                </mxCell>
                <mxCell id="85" value="/controller/ [POST]" style="rounded=0;whiteSpace=wrap;html=1;strokeColor=#001DBC;fillColor=#0050ef;fontColor=#ffffff;fontSize=9;" vertex="1" parent="1">
                    <mxGeometry x="650" y="646.5" width="100" height="20" as="geometry"/>
                </mxCell>
                <mxCell id="86" style="edgeStyle=none;rounded=0;jumpStyle=none;html=1;exitX=1;exitY=0.5;exitDx=0;exitDy=0;entryX=0;entryY=0.5;entryDx=0;entryDy=0;strokeWidth=1;fontSize=9;startArrow=none;startFill=0;endArrow=none;endFill=0;fillColor=#1ba1e2;strokeColor=#006EAF;" edge="1" parent="1" source="37" target="85">
                    <mxGeometry relative="1" as="geometry"/>
                </mxCell>
            </root>
        </mxGraphModel>
    </diagram>
</mxfile>